<svg width="30" height="30" viewBox="0 0 30 30" fill="none" xmlns="http://www.w3.org/2000/svg">
<path d="M24.9138 4.39523C27.8087 7.11703 29.7918 10.8154 29.4647 14.7333C29.146 18.5498 26.4723 21.5897 23.2772 23.8586C20.0798 26.1293 16.3648 27.6991 12.8644 26.553C9.42688 25.4275 7.40951 21.922 6.07277 18.2148C4.81503 14.7267 4.56262 11.0017 6.13151 7.75636C7.85272 4.1959 10.8052 1.31064 14.5027 0.648064C18.2596 -0.0251598 22.0125 1.66731 24.9138 4.39523Z" stroke="#F1F1F1"/>
<path d="M21.8249 3.13125C25.5052 5.16649 28.3877 8.30099 29.2216 12.2582C30.0609 16.2406 28.7608 20.3034 26.1378 23.5405C23.3737 26.9518 19.5695 29.6412 15.2735 29.4942C11.0357 29.3492 7.73419 26.2409 4.98584 22.7932C2.17111 19.2623 -0.163859 15.334 0.672289 11.1829C1.57301 6.71111 4.91176 2.89507 9.27564 1.22199C13.3521 -0.340868 17.8662 0.942004 21.8249 3.13125Z" stroke="#F1F1F1"/>
<path d="M23.6347 2.18673C27.0289 4.22285 28.4381 8.07584 29.0809 12.0493C29.7516 16.1956 29.8433 20.4941 27.0877 23.4203C24.2227 26.4628 19.6005 27.2755 15.1849 26.8091C10.91 26.3575 6.8675 24.4727 4.69028 21.0461C2.61468 17.7795 3.07723 13.706 4.44899 9.92298C5.76994 6.2801 8.13402 3.08972 11.759 1.6344C15.6355 0.0780461 20.131 0.0848913 23.6347 2.18673Z" stroke="#F1F1F1"/>
</svg>
